<?xml version="1.0" encoding="UTF-8"?>
<svg width="56px" height="56px" viewBox="0 0 56 56" version="1.1" xmlns="http://www.w3.org/2000/svg" xmlns:xlink="http://www.w3.org/1999/xlink">
    <title>Black Logo Square</title>
    <desc>Created with Sketch.</desc>
    <g id="Black-Logo-Square" stroke="none" stroke-width="1" fill="none" fill-rule="evenodd">
        <path d="M28.89062,4 C31.39062,4 35.59375,1.64193548 37.875,-1.29032258 C39.875,-3.83870968 41.21875,-7.77419355 41.21875,-11.7096774 C41.21875,-12.1612903 41.1875,-12.6129032 41.125,-13 C38.3125,-12.8709677 34.9375,-10.8387097 32.59375,-7.90322581 C30.84375,-5.83870968 29.375,-2.03225806 29.375,1.06451613 C29.375,1.51612903 29.4375,1.96774194 29.46875,2.12903226 C29.59375,2.16129032 29.78125,4 28.89062,4 Z M20.73437,52 C24.14062,52 25.65625,49.6451613 29.92187,49.6451613 C34.23437,49.6451613 35.21875,51.9354839 38.6875,51.9354839 C42.07812,51.9354839 44.57812,48.3870968 46.96875,44.9032258 C49.67187,40.9032258 50.76562,37.0322581 50.84375,36.8387097 C50.67187,36.7741935 43.92187,33.7419355 43.92187,25.3225806 C43.92187,18.2903226 49.14062,15.0645161 49.35937,14.8064516 C45.67187,9.12903226 40.03125,8.96774194 38.6875,8.96774194 C34.46875,8.96774194 31.1875,11.5806452 29.07812,11.5806452 C26.85937,11.5806452 23.79687,9.12903226 20.17187,9.12903226 C13.32812,9.12903226 6.5,14.9032258 6.5,25.9032258 C6.5,32.7419355 8.92187,40.0645161 11.98437,44.7419355 C14.64062,48.7419355 16.95312,52 20.73437,52 Z" id="" fill="#000000" fill-rule="nonzero"></path>
    </g>
</svg>